
<svg width="32" height="32" viewBox="0 0 24 24" fill="none" xmlns="http://www.w3.org/2000/svg">
  <path d="M21.62 11.108L12.892 2.38C12.652 2.14 12.326 2.006 11.986 2.006C11.646 2.006 11.32 2.14 11.08 2.38L9.294 4.166L11.674 6.546C11.954 6.436 12.266 6.436 12.546 6.546C12.966 6.726 13.26 7.106 13.34 7.566C13.42 8.026 13.276 8.496 12.956 8.826C12.636 9.156 12.176 9.306 11.716 9.226C11.256 9.146 10.876 8.852 10.696 8.432C10.516 8.012 10.556 7.532 10.796 7.152L8.416 4.772L2.38 10.808C2.14 11.048 2.006 11.374 2.006 11.714C2.006 12.054 2.14 12.38 2.38 12.62L11.108 21.348C11.348 21.588 11.674 21.722 12.014 21.722C12.354 21.722 12.68 21.588 12.92 21.348L21.648 12.62C21.888 12.38 22.022 12.054 22.022 11.714C22.022 11.374 21.888 11.048 21.648 10.808L21.62 11.108Z" fill="#F05032"/>
</svg>
